<svg width="206" height="39" viewBox="0 0 206 39" fill="none" xmlns="http://www.w3.org/2000/svg">
<path fill-rule="evenodd" clip-rule="evenodd" d="M29.7356 0.653269C29.733 0.547301 29.7046 0.443569 29.6529 0.351018C29.6013 0.258468 29.5278 0.179877 29.439 0.122024C29.3502 0.0641713 29.2486 0.028794 29.1431 0.0189421C29.0375 0.00909013 28.9312 0.02506 28.8332 0.0654743L19.8434 3.91035C19.7269 3.96024 19.6275 4.04313 19.5574 4.14879C19.4874 4.25446 19.4498 4.37829 19.4492 4.50506V5.88811C19.4493 5.97477 19.4707 6.06009 19.5117 6.13644C19.5527 6.2128 19.612 6.27783 19.6842 6.32575C19.7564 6.37367 19.8394 6.40298 19.9257 6.41108C20.012 6.41918 20.0989 6.40581 20.1788 6.37217L29.2758 2.49618C29.4189 2.4355 29.5409 2.33387 29.6264 2.20407C29.7119 2.07426 29.7571 1.92206 29.7564 1.76662L29.7356 0.653269Z" fill="#1DA1F2"/>
<path fill-rule="evenodd" clip-rule="evenodd" d="M17.789 3.91057L8.76812 0.0587802C8.68904 0.0216927 8.60303 0.00166474 8.51571 0C8.39184 0.000622357 8.27116 0.0392422 8.16994 0.110644C8.07876 0.166896 8.00375 0.245856 7.95223 0.339798C7.90071 0.43374 7.87445 0.539447 7.87604 0.646576V1.68386C7.87587 1.85471 7.92592 2.02184 8.01998 2.16446C8.11404 2.30709 8.24796 2.41891 8.40507 2.48603L17.4951 6.36894C17.571 6.40003 17.6533 6.41205 17.7348 6.40396C17.8164 6.39587 17.8947 6.36791 17.9629 6.32253C18.0312 6.27715 18.0873 6.21573 18.1263 6.14365C18.1653 6.07157 18.186 5.99103 18.1867 5.90907V4.50528C18.1863 4.37802 18.1483 4.25371 18.0776 4.14792C18.0069 4.04213 17.9065 3.95957 17.789 3.91057Z" fill="#1DA1F2"/>
<path fill-rule="evenodd" clip-rule="evenodd" d="M19.8502 7.92481C19.7344 7.97304 19.6357 8.05477 19.5667 8.1595C19.4977 8.26423 19.4616 8.38719 19.4629 8.5126V10.034C19.4656 10.088 19.481 10.1406 19.5077 10.1877C19.5345 10.2347 19.5719 10.2748 19.617 10.3047C19.662 10.3346 19.7135 10.3536 19.7672 10.36C19.8209 10.3664 19.8754 10.3601 19.9262 10.3417L29.7528 6.13722L30.4028 5.86407L31.0494 5.58746L33.0548 4.71268C33.207 4.64776 33.3364 4.53921 33.4269 4.40074C33.5174 4.26228 33.5648 4.10011 33.5631 3.93472V3.03574C33.5645 2.92981 33.5393 2.82524 33.4897 2.7316C33.4402 2.63796 33.3679 2.55826 33.2796 2.4998C33.1772 2.43083 33.0572 2.39246 32.9338 2.38916C32.8441 2.38928 32.7555 2.40936 32.6745 2.44794L31.0425 3.13946L30.3959 3.41262L29.7493 3.68923L19.8502 7.92481Z" fill="#1DA1F2"/>
<path fill-rule="evenodd" clip-rule="evenodd" d="M17.7886 7.92493L7.86523 3.67551L7.21866 3.40582L6.57209 3.12575L4.93318 2.43423C4.85287 2.40181 4.76735 2.38424 4.68077 2.38236C4.59648 2.38145 4.51284 2.39721 4.43466 2.42873C4.35647 2.46025 4.2853 2.50691 4.22521 2.56603C4.16513 2.62516 4.11732 2.69557 4.08454 2.77323C4.05176 2.8509 4.03464 2.93427 4.03419 3.01856V4.02127C4.03334 4.15721 4.07256 4.29039 4.14697 4.40416C4.22138 4.51793 4.32767 4.60724 4.45256 4.66093L6.56171 5.55991L7.20829 5.83998L7.85832 6.11659L17.6365 10.2934C17.695 10.318 17.7586 10.328 17.8219 10.3227C17.8851 10.3174 17.9462 10.2969 17.9998 10.263C18.0534 10.2291 18.0981 10.1827 18.1299 10.1277C18.1618 10.0728 18.1799 10.011 18.1828 9.94763V8.51618C18.1838 8.38949 18.1468 8.26541 18.0765 8.15999C18.0062 8.05458 17.9059 7.97269 17.7886 7.92493Z" fill="#1DA1F2"/>
<path fill-rule="evenodd" clip-rule="evenodd" d="M37.5331 5.19349C37.5349 5.08623 37.5092 4.98028 37.4584 4.88583C37.4075 4.79137 37.3332 4.71158 37.2426 4.6541C37.1406 4.58424 37.0204 4.54577 36.8969 4.54346C36.8095 4.54512 36.7235 4.56515 36.6445 4.60224L34.8638 5.35946L34.2172 5.63952L33.5706 5.91613L31.0535 6.99145L30.4069 7.26806L29.7569 7.54813L19.8681 11.7733C19.751 11.8215 19.651 11.9035 19.5808 12.0088C19.5105 12.1141 19.4733 12.238 19.4739 12.3646V18.7059C19.4758 18.6886 19.4758 18.6712 19.4739 18.654V19.6187V20.3102V28.0933C19.4722 28.1457 19.4781 28.1981 19.4912 28.2489V29.217V29.9086V37.7297C19.4887 37.8395 19.516 37.948 19.5702 38.0436C19.6244 38.1391 19.7034 38.2183 19.7989 38.2725C19.8907 38.3319 19.9964 38.3662 20.1055 38.3723C20.2147 38.3784 20.3235 38.3559 20.4213 38.3071L37.3222 29.7495C37.4283 29.6955 37.517 29.6127 37.5782 29.5106C37.6393 29.4084 37.6704 29.2911 37.6679 29.1721L37.5331 5.19349Z" fill="#1DA1F2"/>
<path fill-rule="evenodd" clip-rule="evenodd" d="M17.7895 11.773L7.85575 7.52018L7.20918 7.24357L6.55914 6.97042L4.03509 5.89164L3.38851 5.61157L2.74194 5.33496L0.96818 4.57774C0.885881 4.54393 0.79783 4.52632 0.708858 4.52588C0.585749 4.52796 0.465794 4.56514 0.363096 4.63307C0.273743 4.69016 0.200261 4.76891 0.149485 4.862C0.098709 4.95509 0.0722863 5.0595 0.0726574 5.16554L3.98217e-05 29.1718C-0.00128215 29.2906 0.0303339 29.4074 0.0913658 29.5093C0.152398 29.6113 0.24046 29.6943 0.345802 29.7492L17.2466 38.3068C17.3456 38.3547 17.4549 38.3772 17.5648 38.3724C17.6746 38.3675 17.7815 38.3355 17.8759 38.2792C17.9707 38.222 18.0492 38.1414 18.1037 38.0451C18.1582 37.9488 18.1869 37.8401 18.1871 37.7294V12.3643C18.1874 12.2373 18.1497 12.1132 18.0788 12.0078C18.008 11.9024 17.9072 11.8207 17.7895 11.773Z" fill="#1DA1F2"/>
<path fill-rule="evenodd" clip-rule="evenodd" d="M14.8878 28.3839C14.78 28.4473 14.6574 28.4811 14.5324 28.4819C14.4073 28.4826 14.2843 28.4503 14.1758 28.3881C14.0673 28.326 13.9772 28.2362 13.9146 28.128C13.852 28.0198 13.8191 27.8969 13.8193 27.7719V21.4721V15.1723C13.8193 15.0476 13.8521 14.9251 13.9142 14.817C13.9764 14.7089 14.0659 14.6191 14.1737 14.5564C14.2815 14.4938 14.4039 14.4605 14.5286 14.46C14.6533 14.4594 14.776 14.4917 14.8843 14.5534L20.3439 17.6964L25.8034 20.8394C25.9111 20.9021 26.0004 20.9919 26.0625 21.0999C26.1245 21.2079 26.1572 21.3303 26.1572 21.4548C26.1572 21.5794 26.1245 21.7018 26.0625 21.8097C26.0004 21.9177 25.9111 22.0076 25.8034 22.0703L20.3508 25.2271L14.8878 28.3839Z" fill="white"/>
<path d="M67.1205 10.0162H59.5492V31.2888H54.8779V10.0162H47.3066V6.1785H67.1205V10.0162Z" fill="white"/>
<path d="M77.0358 20.3312C77.0358 19.7756 76.9548 19.2546 76.7927 18.7684C76.6422 18.2706 76.4107 17.8364 76.0981 17.466C75.7855 17.0955 75.3861 16.8061 74.8999 16.5977C74.4252 16.3777 73.8695 16.2678 73.2328 16.2678C71.9941 16.2678 71.0158 16.6209 70.2981 17.327C69.5919 18.0332 69.1404 19.0346 68.9436 20.3312H77.0358ZM68.8568 22.9187C68.9262 23.8333 69.0883 24.6263 69.343 25.2977C69.5977 25.9576 69.9334 26.5075 70.3502 26.9474C70.7669 27.3758 71.259 27.6999 71.8262 27.9199C72.4051 28.1283 73.0418 28.2325 73.7364 28.2325C74.431 28.2325 75.0272 28.1514 75.525 27.9894C76.0344 27.8273 76.4743 27.6478 76.8448 27.451C77.2268 27.2542 77.5568 27.0748 77.8346 26.9127C78.1241 26.7506 78.4019 26.6696 78.6682 26.6696C79.0271 26.6696 79.2933 26.8027 79.467 27.069L80.6999 28.6319C80.2253 29.1876 79.6927 29.6564 79.1023 30.0385C78.5119 30.4089 77.8925 30.7099 77.2442 30.9415C76.6075 31.1614 75.9534 31.3177 75.2819 31.4103C74.622 31.5029 73.9795 31.5493 73.3544 31.5493C72.1156 31.5493 70.9637 31.3467 69.8987 30.9415C68.8336 30.5247 67.9074 29.9169 67.1202 29.1181C66.333 28.3077 65.7136 27.3121 65.2621 26.1313C64.8106 24.9389 64.5849 23.5612 64.5849 21.9983C64.5849 20.7827 64.7817 19.6424 65.1753 18.5773C65.5689 17.5007 66.1304 16.5688 66.8597 15.7815C67.6007 14.9827 68.4979 14.3518 69.5514 13.8887C70.6164 13.4256 71.8146 13.1941 73.146 13.1941C74.2689 13.1941 75.3051 13.3735 76.2544 13.7324C77.2037 14.0913 78.0199 14.6181 78.7029 15.3127C79.3859 15.9957 79.9185 16.8408 80.3005 17.848C80.6941 18.8436 80.8909 19.9839 80.8909 21.269C80.8909 21.9173 80.8215 22.3572 80.6825 22.5887C80.5436 22.8087 80.2774 22.9187 79.8837 22.9187H68.8568Z" fill="white"/>
<path d="M93.5218 23.6828C92.283 23.7406 91.2411 23.8506 90.396 24.0127C89.5509 24.1632 88.8736 24.36 88.3643 24.6031C87.8549 24.8462 87.4902 25.1299 87.2702 25.454C87.0503 25.7782 86.9403 26.1313 86.9403 26.5133C86.9403 27.2658 87.1603 27.8041 87.6002 28.1283C88.0517 28.4524 88.6363 28.6145 89.3541 28.6145C90.2339 28.6145 90.9922 28.4582 91.6289 28.1456C92.2773 27.8215 92.9082 27.3353 93.5218 26.687V23.6828ZM83.693 15.9552C85.7421 14.0797 88.208 13.142 91.0906 13.142C92.1325 13.142 93.0645 13.3157 93.8864 13.663C94.7084 13.9987 95.403 14.4733 95.9703 15.0869C96.5375 15.6889 96.9659 16.4125 97.2553 17.2576C97.5563 18.1027 97.7068 19.0288 97.7068 20.036V31.2888H95.7619C95.3567 31.2888 95.0441 31.2309 94.8242 31.1151C94.6042 30.9878 94.4306 30.7389 94.3032 30.3684L93.9212 29.0834C93.4697 29.4886 93.0297 29.8475 92.6014 30.16C92.1731 30.461 91.7273 30.7157 91.2643 30.9241C90.8012 31.1325 90.3034 31.2888 89.7709 31.393C89.2499 31.5087 88.6711 31.5666 88.0343 31.5666C87.2818 31.5666 86.5872 31.4682 85.9505 31.2714C85.3138 31.063 84.7639 30.7562 84.3008 30.351C83.8377 29.9459 83.4788 29.4423 83.2241 28.8403C82.9694 28.2383 82.8421 27.5379 82.8421 26.7391C82.8421 26.2876 82.9173 25.8418 83.0678 25.4019C83.2183 24.9504 83.4614 24.5221 83.7972 24.1169C84.1445 23.7117 84.5902 23.3297 85.1343 22.9708C85.6784 22.6119 86.3441 22.2993 87.1313 22.0331C87.9301 21.7668 88.8563 21.5526 89.9098 21.3905C90.9633 21.2169 92.1673 21.1127 93.5218 21.078V20.036C93.5218 18.8436 93.2671 17.9638 92.7577 17.3965C92.2483 16.8177 91.5132 16.5282 90.5523 16.5282C89.8577 16.5282 89.2788 16.6093 88.8158 16.7714C88.3643 16.9334 87.9649 17.1187 87.6176 17.327C87.2702 17.5239 86.9519 17.7033 86.6625 17.8654C86.3846 18.0274 86.072 18.1085 85.7247 18.1085C85.4237 18.1085 85.169 18.0332 84.9607 17.8827C84.7523 17.7207 84.5844 17.5354 84.4571 17.327L83.693 15.9552Z" fill="white"/>
<path d="M114.51 17.2402C114.383 17.4023 114.255 17.5296 114.128 17.6223C114.012 17.7149 113.838 17.7612 113.607 17.7612C113.387 17.7612 113.173 17.6975 112.964 17.5702C112.756 17.4312 112.507 17.2807 112.218 17.1187C111.928 16.945 111.581 16.7945 111.176 16.6672C110.782 16.5282 110.29 16.4588 109.7 16.4588C108.947 16.4588 108.287 16.5977 107.72 16.8755C107.153 17.1418 106.678 17.5296 106.296 18.039C105.926 18.5484 105.648 19.1678 105.463 19.8971C105.277 20.6149 105.185 21.4311 105.185 22.3456C105.185 23.2949 105.283 24.14 105.48 24.881C105.688 25.6219 105.984 26.247 106.366 26.7564C106.748 27.2542 107.211 27.6363 107.755 27.9025C108.299 28.1572 108.913 28.2846 109.596 28.2846C110.279 28.2846 110.828 28.2035 111.245 28.0415C111.674 27.8678 112.032 27.6826 112.322 27.4858C112.611 27.2774 112.86 27.0922 113.069 26.9301C113.289 26.7564 113.532 26.6696 113.798 26.6696C114.145 26.6696 114.406 26.8027 114.579 27.069L115.812 28.6319C115.338 29.1876 114.823 29.6564 114.267 30.0385C113.711 30.4089 113.132 30.7099 112.53 30.9415C111.94 31.1614 111.326 31.3177 110.69 31.4103C110.064 31.5029 109.439 31.5493 108.814 31.5493C107.714 31.5493 106.678 31.3467 105.706 30.9415C104.733 30.5247 103.882 29.9227 103.153 29.1355C102.424 28.3482 101.845 27.3874 101.416 26.2528C101 25.1067 100.791 23.8043 100.791 22.3456C100.791 21.0374 100.977 19.8277 101.347 18.7163C101.729 17.5933 102.285 16.6266 103.014 15.8163C103.743 14.9943 104.646 14.3518 105.723 13.8887C106.8 13.4256 108.038 13.1941 109.439 13.1941C110.771 13.1941 111.934 13.4083 112.93 13.8366C113.937 14.265 114.84 14.8785 115.639 15.6773L114.51 17.2402Z" fill="white"/>
<path d="M122.79 15.3821C123.485 14.7338 124.249 14.2071 125.083 13.8019C125.916 13.3967 126.895 13.1941 128.017 13.1941C128.99 13.1941 129.852 13.362 130.605 13.6977C131.357 14.0218 131.983 14.4849 132.48 15.0869C132.99 15.6773 133.372 16.3893 133.626 17.2229C133.893 18.0448 134.026 18.9536 134.026 19.9492V31.2888H129.737V19.9492C129.737 18.861 129.488 18.0217 128.99 17.4312C128.492 16.8292 127.734 16.5282 126.715 16.5282C125.974 16.5282 125.28 16.6961 124.631 17.0318C123.983 17.3676 123.369 17.8249 122.79 18.4037V31.2888H118.501V5.48389H122.79V15.3821Z" fill="white"/>
<path d="M138.105 31.2888V13.4719H140.727C141.283 13.4719 141.648 13.7324 141.821 14.2534L142.099 15.5731C142.412 15.2258 142.736 14.9075 143.072 14.6181C143.419 14.3286 143.784 14.0797 144.166 13.8713C144.559 13.663 144.976 13.5009 145.416 13.3851C145.867 13.2578 146.359 13.1941 146.892 13.1941C148.015 13.1941 148.935 13.5009 149.653 14.1145C150.382 14.7165 150.927 15.5211 151.285 16.5282C151.563 15.9378 151.911 15.4342 152.327 15.0175C152.744 14.5891 153.201 14.2418 153.699 13.9755C154.197 13.7093 154.724 13.5125 155.279 13.3851C155.847 13.2578 156.414 13.1941 156.981 13.1941C157.965 13.1941 158.839 13.3446 159.603 13.6456C160.367 13.9466 161.01 14.3865 161.531 14.9654C162.052 15.5442 162.446 16.2504 162.712 17.0839C162.99 17.9175 163.129 18.8726 163.129 19.9492V31.2888H158.839V19.9492C158.839 18.8147 158.59 17.9638 158.093 17.3965C157.595 16.8177 156.865 16.5282 155.905 16.5282C155.465 16.5282 155.054 16.6035 154.672 16.754C154.301 16.9045 153.971 17.1244 153.682 17.4139C153.404 17.6917 153.184 18.0448 153.022 18.4732C152.86 18.9015 152.779 19.3935 152.779 19.9492V31.2888H148.472V19.9492C148.472 18.7568 148.229 17.8885 147.743 17.3444C147.268 16.8003 146.568 16.5282 145.642 16.5282C145.017 16.5282 144.432 16.6845 143.888 16.9971C143.355 17.2981 142.857 17.7149 142.394 18.2474V31.2888H138.105Z" fill="white"/>
<path d="M171.651 13.4719V31.2888H167.345V13.4719H171.651ZM172.242 8.27971C172.242 8.65017 172.166 8.99747 172.016 9.32162C171.865 9.64578 171.663 9.92941 171.408 10.1725C171.165 10.4156 170.875 10.6124 170.54 10.7629C170.204 10.9019 169.845 10.9713 169.463 10.9713C169.093 10.9713 168.74 10.9019 168.404 10.7629C168.08 10.6124 167.796 10.4156 167.553 10.1725C167.31 9.92941 167.113 9.64578 166.962 9.32162C166.824 8.99747 166.754 8.65017 166.754 8.27971C166.754 7.89767 166.824 7.53878 166.962 7.20305C167.113 6.86733 167.31 6.5779 167.553 6.33479C167.796 6.09167 168.08 5.90065 168.404 5.76173C168.74 5.61123 169.093 5.53598 169.463 5.53598C169.845 5.53598 170.204 5.61123 170.54 5.76173C170.875 5.90065 171.165 6.09167 171.408 6.33479C171.663 6.5779 171.865 6.86733 172.016 7.20305C172.166 7.53878 172.242 7.89767 172.242 8.27971Z" fill="white"/>
<path d="M180.035 15.66C180.394 15.3011 180.77 14.9711 181.164 14.6701C181.569 14.3576 181.992 14.0971 182.432 13.8887C182.883 13.6687 183.364 13.5009 183.873 13.3851C184.382 13.2578 184.938 13.1941 185.54 13.1941C186.513 13.1941 187.375 13.362 188.128 13.6977C188.88 14.0218 189.505 14.4849 190.003 15.0869C190.512 15.6773 190.894 16.3893 191.149 17.2229C191.415 18.0448 191.549 18.9536 191.549 19.9492V31.2888H187.259V19.9492C187.259 18.861 187.01 18.0217 186.513 17.4312C186.015 16.8292 185.257 16.5282 184.238 16.5282C183.497 16.5282 182.802 16.6961 182.154 17.0318C181.506 17.3676 180.892 17.8249 180.313 18.4037V31.2888H176.024V13.4719H178.646C179.202 13.4719 179.566 13.7324 179.74 14.2534L180.035 15.66Z" fill="white"/>
<path d="M201.329 31.5666C199.778 31.5666 198.586 31.1325 197.752 30.2642C196.93 29.3844 196.519 28.1746 196.519 26.6349V16.6845H194.696C194.464 16.6845 194.267 16.6093 194.105 16.4588C193.943 16.3083 193.862 16.0825 193.862 15.7815V14.0797L196.727 13.6109L197.63 8.74857C197.688 8.51703 197.798 8.33759 197.96 8.21024C198.122 8.0829 198.331 8.01923 198.586 8.01923H200.808V13.6282H205.566V16.6845H200.808V26.3397C200.808 26.8953 200.941 27.3295 201.208 27.6421C201.486 27.9546 201.862 28.1109 202.336 28.1109C202.603 28.1109 202.823 28.082 202.996 28.0241C203.182 27.9546 203.338 27.8852 203.465 27.8157C203.604 27.7462 203.726 27.6826 203.83 27.6247C203.934 27.5552 204.038 27.5205 204.142 27.5205C204.27 27.5205 204.374 27.5552 204.455 27.6247C204.536 27.6826 204.623 27.7752 204.716 27.9025L206.001 29.9864C205.375 30.5073 204.658 30.9009 203.847 31.1672C203.037 31.4335 202.198 31.5666 201.329 31.5666Z" fill="white"/>
</svg>
